<svg width="40" height="40" viewBox="0 0 40 40" fill="none" xmlns="http://www.w3.org/2000/svg">
<rect width="40" height="40" rx="4" fill="white"/>
<path d="M27.8629 21.167C27.7228 22.6832 27.1537 24.1283 26.2223 25.3329C25.2909 26.5376 24.0357 27.4521 22.6035 27.9694C21.1713 28.4867 19.6214 28.5855 18.1352 28.2541C16.6489 27.9227 15.2878 27.1748 14.211 26.0981C13.1343 25.0214 12.3865 23.6602 12.0551 22.174C11.7237 20.6877 11.8224 19.1378 12.3397 17.7056C12.857 16.2735 13.7715 15.0182 14.9762 14.0868C16.1809 13.1554 17.6259 12.5864 19.1422 12.4462C18.2545 13.6472 17.8273 15.127 17.9383 16.6163C18.0494 18.1057 18.6913 19.5057 19.7474 20.5618C20.8034 21.6178 22.2035 22.2597 23.6928 22.3708C25.1822 22.4819 26.6619 22.0547 27.8629 21.167Z" stroke="#1E2122" stroke-width="2" stroke-linecap="round" stroke-linejoin="round"/>
</svg>
